<svg xmlns="http://www.w3.org/2000/svg" aria-hidden="true" style="position:absolute;width:0;height:0;overflow:hidden">
    <defs>
        <symbol id="icon-logo-kodix" viewBox="0 0 183 32">
            <path fill="#000" style="fill: var(--color1, #000)" d="M34.722 25.931c1.399 1.39 1.399 3.637 0 5.027s-3.659 1.39-5.058 0l-11.779-11.709-11.78 11.709c-0.684 0.68-1.599 1.042-2.53 1.042-0.462 0-0.927-0.085-1.37-0.27-1.335-0.548-2.207-1.849-2.207-3.285v-24.89c0-1.966 1.603-3.555 3.577-3.555s3.577 1.59 3.577 3.555v16.306l8.203-8.154c0.342-0.345 0.741-0.601 1.167-0.775 0.415-0.171 0.873-0.266 1.352-0.266h14.319c1.974 0 3.577 1.59 3.577 3.555s-1.603 3.556-3.577 3.556h-5.674l8.202 8.152z"></path>
            <path fill="#000" style="fill: var(--color1, #000)" d="M73.333 21.333c0 5.881-4.815 10.667-10.731 10.667h-14.308c-5.917 0-10.731-4.786-10.731-10.667s4.815-10.667 10.731-10.667h14.308c5.917 0 10.731 4.786 10.731 10.667zM66.179 21.333c0-1.962-1.606-3.555-3.578-3.555h-14.308c-1.971 0-3.578 1.593-3.578 3.555s1.606 3.555 3.578 3.555h14.308c1.971 0 3.578-1.592 3.578-3.555z"></path>
            <path fill="#000" style="fill: var(--color1, #000)" d="M112.235 3.555v24.889c0 1.44-0.874 2.738-2.207 3.285-0.444 0.185-0.909 0.27-1.371 0.27-0.93 0-1.846-0.359-2.53-1.041l-13.26-13.18h-5.673c-1.971 0-3.578 1.593-3.578 3.555s1.606 3.555 3.578 3.555h7.154c1.974 0 3.577 1.59 3.577 3.555s-1.603 3.555-3.577 3.555h-7.154c-5.917 0-10.731-4.785-10.731-10.666s4.814-10.667 10.731-10.667h7.154c0.949 0 1.861 0.376 2.529 1.042l8.202 8.154v-16.307c0-1.966 1.602-3.555 3.576-3.555s3.577 1.593 3.577 3.555h0.002z"></path>
            <path fill="#000" style="fill: var(--color1, #000)" d="M142.933 30.958c-0.696 0.694-1.612 1.041-2.528 1.041s-1.832-0.345-2.529-1.041l-13.26-13.18h-5.674c-1.975 0-3.578-1.59-3.578-3.556s1.603-3.555 3.578-3.555h7.155c0.948 0 1.859 0.376 2.528 1.042l14.308 14.222c1.399 1.39 1.399 3.641 0 5.027zM122.52 3.555c0-1.963 1.602-3.555 3.578-3.555s3.576 1.592 3.576 3.555c0 1.963-1.602 3.555-3.576 3.555s-3.578-1.592-3.578-3.555z"></path>
            <path fill="#1fff1a" style="fill: var(--color2, #1fff1a)" d="M181.808 25.93c1.398 1.39 1.398 3.637 0 5.027-0.697 0.694-1.613 1.041-2.53 1.041s-1.832-0.345-2.529-1.041l-6.106-6.069h-11.346l-6.106 6.069c-1.399 1.39-3.659 1.39-5.058 0s-1.398-3.637 0-5.027l4.626-4.597-4.626-4.597c-1.398-1.39-1.398-3.637 0-5.027s3.659-1.39 5.058 0l6.106 6.069h11.346l6.106-6.069c1.399-1.39 3.659-1.39 5.058 0s1.398 3.637 0 5.027l-4.626 4.597 4.626 4.597z"></path>
        </symbol>
        <symbol id="icon-stars" viewBox="0 0 32 32">
            <path d="M15.987 2.667c-7.36 0-13.32 5.973-13.32 13.333s5.96 13.333 13.32 13.333c7.373 0 13.347-5.973 13.347-13.333s-5.973-13.333-13.347-13.333zM21.64 24l-5.64-3.4-5.64 3.4 1.493-6.413-4.973-4.307 6.56-0.56 2.56-6.053 2.56 6.040 6.56 0.56-4.973 4.307 1.493 6.427z"></path>
        </symbol>
        <symbol id="icon-assignment" viewBox="0 0 32 32">
            <path d="M25.333 4h-5.573c-0.56-1.547-2.027-2.667-3.76-2.667s-3.2 1.12-3.76 2.667h-5.573c-1.467 0-2.667 1.2-2.667 2.667v18.667c0 1.467 1.2 2.667 2.667 2.667h18.667c1.467 0 2.667-1.2 2.667-2.667v-18.667c0-1.467-1.2-2.667-2.667-2.667zM16 4c0.733 0 1.333 0.6 1.333 1.333s-0.6 1.333-1.333 1.333c-0.733 0-1.333-0.6-1.333-1.333s0.6-1.333 1.333-1.333zM16 9.333c2.213 0 4 1.787 4 4s-1.787 4-4 4c-2.213 0-4-1.787-4-4s1.787-4 4-4zM24 25.333h-16v-1.867c0-2.667 5.333-4.133 8-4.133s8 1.467 8 4.133v1.867z"></path>
        </symbol>
        <symbol id="icon-dynamic" viewBox="0 0 32 32">
            <path d="M22.667 26.667v-12h-2.667v-9.333h9.333l-2.667 6.667h2.667l-6.667 14.667zM20 17.333v9.333h-14.667c-1.467 0-2.667-1.2-2.667-2.667v-4c0-1.467 1.2-2.667 2.667-2.667h14.667zM8.333 21h-2v2h2v-2zM17.333 5.333v9.333h-12c-1.467 0-2.667-1.2-2.667-2.667v-4c0-1.467 1.2-2.667 2.667-2.667h12zM8.333 9h-2v2h2v-2z"></path>
        </symbol>
        <symbol id="icon-monetization" viewBox="0 0 32 32">
            <path d="M16 2.667c-7.36 0-13.333 5.973-13.333 13.333s5.973 13.333 13.333 13.333c7.36 0 13.333-5.973 13.333-13.333s-5.973-13.333-13.333-13.333zM17.88 24.12v2.547h-3.56v-2.573c-2.28-0.48-4.213-1.947-4.36-4.533h2.613c0.133 1.4 1.093 2.493 3.533 2.493 2.613 0 3.2-1.307 3.2-2.12 0-1.107-0.587-2.147-3.56-2.853-3.307-0.8-5.573-2.16-5.573-4.893 0-2.293 1.853-3.787 4.147-4.28v-2.573h3.56v2.6c2.48 0.6 3.72 2.48 3.8 4.52h-2.613c-0.067-1.48-0.853-2.493-2.96-2.493-2 0-3.2 0.907-3.2 2.187 0 1.12 0.867 1.853 3.56 2.547s5.573 1.853 5.573 5.213c-0.013 2.44-1.84 3.773-4.16 4.213z"></path>
        </symbol>
    </defs>
</svg>