<svg xmlns="http://www.w3.org/2000/svg" aria-hidden="true" role="img" class="iconify iconify--logos" width="32"
     height="32" preserveAspectRatio="xMidYMid meet" viewBox="0 0 53 53">
    <path fill="#1fff1a" d="M52.14 22.896c2.098 2.085 2.098 5.456 0 7.541-1.046 1.041-2.419 1.561-3.794 1.561s-2.747-0.517-3.793-1.561l-9.159-9.104h-17.019l-9.159 9.104c-2.098 2.085-5.489 2.085-7.587 0s-2.098-5.456 0-7.541l6.938-6.896-6.938-6.896c-2.098-2.085-2.098-5.456 0-7.541s5.489-2.085 7.587 0l9.159 9.104h17.019l9.159-9.104c2.098-2.085 5.489-2.085 7.587 0s2.098 5.456 0 7.541l-6.938 6.896 6.938 6.896z"></path>
</svg>